<svg id="Capa_1" data-name="Capa 1" xmlns="http://www.w3.org/2000/svg" viewBox="0 0 64 63.4"><defs><style>.cls-1{fill:#d07017;}.cls-2{fill:none;stroke:#d07017;stroke-miterlimit:10;}</style></defs><path class="cls-1" d="M36.9,38.6a17.83,17.83,0,0,0,3.2-2.4c8-7.3,8.1-20.2,8.1-20.2s-12.9-1-20.9,6.3a18,18,0,0,0-2.6,3,12.16,12.16,0,0,0-8.4.3L13.7,31l2.7,2.9.1-.1a12.15,12.15,0,0,1,5-2.9,47.75,47.75,0,0,0-1.9,6.8l4.1,4.5a35.08,35.08,0,0,0,7-1.3,12.93,12.93,0,0,1-3.3,4.8l-.1.1L30,48.7l5.6-2.1A11,11,0,0,0,36.9,38.6Zm4.2-16.1a3.79,3.79,0,0,1-5.5,5.2,3.85,3.85,0,0,1,.3-5.2A3.65,3.65,0,0,1,41.1,22.5Z" transform="translate(0 -0.4)"/><ellipse class="cls-2" cx="32" cy="31.7" rx="31.5" ry="31.2"/><path class="cls-1" d="M20.1,41.9C18.8,40.5,17,40,16,40.8s-1.1,5.8-1.1,5.8,5,.3,5.9-.5S21.5,43.4,20.1,41.9Z" transform="translate(0 -0.4)"/></svg>